<svg fill="currentColor" xmlns="http://www.w3.org/2000/svg" version="1.0" width="150" height="180" viewBox="0 0 200 200" preserveAspectRatio="xMidYMid meet">

<g transform="translate(-145,280) scale(0.03,-0.03)" fill="currentColor" stroke="none">
<path fill="currentColor" d="M7805 9410 c-803 -72 -1526 -643 -1773 -1400 -70 -216 -99 -379 -108 -610 -29 -732 340 -1423 977 -1826 107 -68 109 -66 -74 -90 -128 -17 -277 -14 -352 7 -29 8 -65 35 -135 104 -111 109 -139 125 -215 125 -101 0 -173 -57 -216 -170 -22 -57 -30 -66 -85 -101 -73 -46 -137 -113 -159 -165 -8 -20 -15 -64 -15 -98 0 -157 123 -276 331 -323 61 -14 133 -17 419 -17 190 0 432 6 539 13 163 11 195 11 202 0 5 -8 9 -57 9 -109 1 -179 30 -764 45 -900 23 -198 53 -367 92 -520 19 -74 37 -144 40 -156 4 -18 -2 -23 -42 -33 -72 -18 -158 -65 -195 -107 -47 -53 -63 -99 -64 -179 -1 -160 112 -260 309 -272 159 -11 352 32 458 101 105 68 156 134 197 257 l27 82 27 -80 c47 -140 118 -222 247 -287 101 -51 200 -70 354 -71 105 0 140 4 183 20 146 54 212 190 167 341 -25 86 -112 158 -231 190 -51 14 -64 20 -59 33 21 55 79 298 99 421 39 228 54 404 76 855 11 231 24 422 28 426 4 3 45 3 92 -2 350 -32 880 -35 1022 -5 194 42 321 168 322 320 0 108 -62 201 -181 268 -47 27 -55 36 -74 90 -45 122 -114 178 -219 178 -77 0 -125 -27 -221 -128 -95 -100 -117 -110 -265 -119 -109 -7 -384 25 -384 45 0 4 21 20 47 37 79 49 192 143 291 239 354 344 578 797 633 1275 17 149 7 455 -20 602 -146 805 -708 1439 -1480 1668 -199 59 -473 88 -666 71z m428 -215 c266 -48 532 -163 769 -331 112 -80 347 -316 431 -434 184 -260 312 -608 346 -949 58 -562 -151 -1127 -567 -1538 -153 -151 -305 -259 -503 -358 -67 -34 -109 -61 -106 -68 46 -115 62 -149 72 -153 7 -3 27 1 46 9 30 12 40 11 114 -14 138 -48 266 -70 440 -76 129 -5 178 -2 245 11 120 24 154 44 254 146 49 50 94 89 100 87 6 -2 25 -39 43 -82 37 -90 56 -113 120 -146 67 -35 113 -81 113 -114 0 -42 -63 -99 -135 -122 -54 -16 -98 -18 -445 -17 -359 0 -534 9 -806 40 l-50 6 -12 -92 c-7 -51 -9 -97 -5 -101 8 -8 6 -82 -22 -626 -20 -411 -55 -674 -121 -922 -36 -132 -52 -171 -74 -171 -29 0 -32 -14 -25 -109 l7 -88 87 -6 c95 -7 206 -37 241 -65 29 -24 30 -76 1 -105 -19 -19 -34 -22 -129 -25 -207 -7 -353 53 -413 170 -54 105 -105 409 -122 728 l-2 45 -106 3 -106 3 -7 -32 c-3 -17 -6 -61 -6 -98 0 -100 -28 -322 -57 -451 -47 -213 -79 -268 -187 -319 -82 -39 -147 -51 -269 -51 -84 0 -108 4 -134 20 -27 16 -33 26 -33 53 0 60 59 94 198 116 39 6 92 11 117 11 l46 0 -3 97 c-3 91 -5 98 -24 101 -43 6 -117 310 -158 643 -25 200 -65 1040 -52 1075 6 17 -13 176 -23 186 -3 3 -62 0 -131 -7 -241 -25 -545 -37 -855 -33 -346 5 -385 11 -449 71 -67 64 -56 116 36 165 89 47 124 85 156 170 16 42 34 78 41 80 7 2 51 -36 99 -86 99 -103 136 -124 252 -148 68 -13 116 -16 245 -11 178 7 297 27 447 77 96 32 98 32 144 16 27 -9 51 -13 55 -9 12 12 59 166 53 174 -2 4 -28 15 -57 25 -28 9 -97 38 -152 64 -394 184 -716 503 -905 895 -127 264 -180 502 -180 810 0 189 16 320 61 495 186 722 817 1274 1579 1380 93 13 370 4 473 -15z"/>
<path fill="currentColor" d="M7184 7974 c-152 -56 -202 -251 -96 -374 111 -131 313 -107 387 45 24 47 27 64 23 124 -3 58 -9 78 -34 113 -62 89 -182 129 -280 92z"/>
<path fill="currentColor" d="M8450 7969 c-159 -72 -196 -263 -75 -384 85 -86 212 -94 308 -21 63 48 92 107 92 186 -1 173 -172 288 -325 219z"/>
<path fill="currentColor" d="M8205 7357 c-121 -185 -351 -228 -515 -96 -30 24 -102 115 -116 147 -3 7 -174 -73 -174 -82 0 -24 84 -137 143 -192 166 -156 402 -188 610 -83 76 39 200 161 240 237 l29 53 -85 39 c-47 22 -87 40 -88 40 -2 -1 -22 -29 -44 -63z"/>
</g>
</svg>
